<?xml version="1.0" standalone="no"?><svg xmlns="http://www.w3.org/2000/svg" viewBox="0 0 1440 320"><path fill="#040109" fill-opacity="1" d="M0,192L30,192C60,192,120,192,180,202.7C240,213,300,235,360,240C420,245,480,235,540,229.3C600,224,660,224,720,192C780,160,840,96,900,85.3C960,75,1020,117,1080,160C1140,203,1200,245,1260,224C1320,203,1380,117,1410,74.7L1440,32L1440,320L1410,320C1380,320,1320,320,1260,320C1200,320,1140,320,1080,320C1020,320,960,320,900,320C840,320,780,320,720,320C660,320,600,320,540,320C480,320,420,320,360,320C300,320,240,320,180,320C120,320,60,320,30,320L0,320Z" style="--darkreader-inline-fill: #030107;" data-darkreader-inline-fill=""></path></svg>